<svg width="25" height="24" xmlns="http://www.w3.org/2000/svg">
 <title/>
 <desc/>

 <g>
  <title>background</title>
  <rect fill="none" id="canvas_background" height="402" width="582" y="-1" x="-1"/>
 </g>
 <g>
  <title>Layer 1</title>
  <path fill="#ffffff" id="Shape" d="m20.476469,10l0,-3l-2,0l0,3l-3,0l0,2l3,0l0,3l2,0l0,-3l3,0l0,-2l-3,0l0,0zm-7.7,3.4l-1.1,-0.8c-0.4,-0.3 -0.8,-0.7 -0.8,-1.4c0,-0.7 0.5,-1.3 1,-1.6c1.3,-1 2.6,-2.1 2.6,-4.3c0,-2.1 -1.3,-3.3 -2,-3.9l1.7,0l1.2,-1.4l-6.2,0c-4.4,0 -6.6,2.8 -6.6,5.8c0,2.3 1.8,4.8 5,4.8l0.8,0c-0.1,0.3 -0.4,0.8 -0.4,1.3c0,1 0.4,1.4 0.9,2c-1.4,0.1 -4,0.4 -5.9,1.6c-1.8,1.1 -2.3,2.6 -2.3,3.7c0,2.3 2.1,4.5 6.6,4.5c5.4,0 8,-3 8,-5.9c0,-2.1 -1.1,-3.2 -2.5,-4.4l0,0zm-7.6,-9.1c0,-2.2 1.3,-3.2 2.7,-3.2c2.6,0 4,3.5 4,5.5c0,2.6 -2.1,3.1 -2.9,3.1c-2.5,0 -3.8,-3.1 -3.8,-5.4l0,0zm3.6,18c-3.3,0 -5.4,-1.5 -5.4,-3.7c0,-2.2 2,-2.9 2.6,-3.2c1.3,-0.4 3,-0.5 3.3,-0.5l0.7,0c2.4,1.7 3.4,2.4 3.4,4c0,1.9 -1.9,3.4 -4.6,3.4l0,0z"/>
 </g>
</svg>